<mxfile host="app.diagrams.net" modified="2021-09-16T04:35:36.996Z" agent="5.0 (Macintosh; Intel Mac OS X 10_15_7) AppleWebKit/605.1.15 (KHTML, like Gecko) Version/14.1.2 Safari/605.1.15" etag="1v4Vb5-ZtxXp4dhr3PvY" version="15.2.7" type="github">
  <diagram id="2j-dnvrhPGZeGhH3VrNi" name="ページ1">
    <mxGraphModel dx="683" dy="428" grid="1" gridSize="10" guides="1" tooltips="1" connect="1" arrows="1" fold="1" page="1" pageScale="1" pageWidth="1200" pageHeight="1600" math="0" shadow="0">
      <root>
        <mxCell id="0" />
        <mxCell id="1" parent="0" />
        <mxCell id="V0Zn2ncvvBvBfi_nPmDr-26" style="edgeStyle=orthogonalEdgeStyle;rounded=0;orthogonalLoop=1;jettySize=auto;html=1;entryX=0.006;entryY=0.344;entryDx=0;entryDy=0;entryPerimeter=0;" parent="1" source="V0Zn2ncvvBvBfi_nPmDr-18" target="V0Zn2ncvvBvBfi_nPmDr-22" edge="1">
          <mxGeometry relative="1" as="geometry" />
        </mxCell>
        <mxCell id="V0Zn2ncvvBvBfi_nPmDr-18" value="InitializeAirSim" style="swimlane;childLayout=stackLayout;horizontal=1;startSize=30;horizontalStack=0;rounded=1;fontSize=14;fontStyle=0;strokeWidth=2;resizeParent=0;resizeLast=1;shadow=0;dashed=0;align=center;" parent="1" vertex="1">
          <mxGeometry x="240" y="230" width="160" height="120" as="geometry" />
        </mxCell>
        <mxCell id="V0Zn2ncvvBvBfi_nPmDr-19" value="onClickで起動&#xa;setting.jsonを探す&#xa;Car,Droneのシーン読み込み" style="align=left;strokeColor=none;fillColor=none;spacingLeft=4;fontSize=12;verticalAlign=top;resizable=0;rotatable=0;part=1;" parent="V0Zn2ncvvBvBfi_nPmDr-18" vertex="1">
          <mxGeometry y="30" width="160" height="90" as="geometry" />
        </mxCell>
        <mxCell id="V0Zn2ncvvBvBfi_nPmDr-23" value="onClickで起動&#xa;setting.jsonを探す&#xa;Car,Droneのシーン読み込み" style="align=left;strokeColor=none;fillColor=none;spacingLeft=4;fontSize=12;verticalAlign=top;resizable=0;rotatable=0;part=1;" parent="V0Zn2ncvvBvBfi_nPmDr-18" vertex="1">
          <mxGeometry y="120" width="160" as="geometry" />
        </mxCell>
        <mxCell id="V0Zn2ncvvBvBfi_nPmDr-21" value="AirSImSettings" style="swimlane;childLayout=stackLayout;horizontal=1;startSize=30;horizontalStack=0;rounded=1;fontSize=14;fontStyle=0;strokeWidth=2;resizeParent=0;resizeLast=1;shadow=0;dashed=0;align=center;" parent="1" vertex="1">
          <mxGeometry x="414" y="50" width="160" height="120" as="geometry" />
        </mxCell>
        <mxCell id="V0Zn2ncvvBvBfi_nPmDr-22" value="+Attribute1&#xa;+Attribute2&#xa;+Attribute3" style="align=left;strokeColor=none;fillColor=none;spacingLeft=4;fontSize=12;verticalAlign=top;resizable=0;rotatable=0;part=1;" parent="V0Zn2ncvvBvBfi_nPmDr-21" vertex="1">
          <mxGeometry y="30" width="160" height="90" as="geometry" />
        </mxCell>
        <mxCell id="ThfKir7YbbVasL51CzR_-1" value="smoothFollow" style="swimlane;childLayout=stackLayout;horizontal=1;startSize=30;horizontalStack=0;rounded=1;fontSize=14;fontStyle=0;strokeWidth=2;resizeParent=0;resizeLast=1;shadow=0;dashed=0;align=center;" parent="1" vertex="1">
          <mxGeometry x="270" y="500" width="160" height="120" as="geometry" />
        </mxCell>
        <mxCell id="ThfKir7YbbVasL51CzR_-2" value="カメラのドローン追跡" style="align=left;strokeColor=none;fillColor=none;spacingLeft=4;fontSize=12;verticalAlign=top;resizable=0;rotatable=0;part=1;" parent="ThfKir7YbbVasL51CzR_-1" vertex="1">
          <mxGeometry y="30" width="160" height="90" as="geometry" />
        </mxCell>
        <mxCell id="2XuE7_Qku_h-1j3S_phQ-1" value="AirSimGlobal" style="swimlane;childLayout=stackLayout;horizontal=1;startSize=30;horizontalStack=0;rounded=1;fontSize=14;fontStyle=0;strokeWidth=2;resizeParent=0;resizeLast=1;shadow=0;dashed=0;align=center;" vertex="1" parent="1">
          <mxGeometry x="560" y="550" width="160" height="120" as="geometry" />
        </mxCell>
        <mxCell id="2XuE7_Qku_h-1j3S_phQ-2" value="・AirSimGlobal&#xa;シングルトン&#xa;Weatherクラスが入ってる" style="align=left;strokeColor=none;fillColor=none;spacingLeft=4;fontSize=12;verticalAlign=top;resizable=0;rotatable=0;part=1;" vertex="1" parent="2XuE7_Qku_h-1j3S_phQ-1">
          <mxGeometry y="30" width="160" height="90" as="geometry" />
        </mxCell>
        <mxCell id="2XuE7_Qku_h-1j3S_phQ-12" style="edgeStyle=orthogonalEdgeStyle;rounded=0;orthogonalLoop=1;jettySize=auto;html=1;" edge="1" parent="1" source="2XuE7_Qku_h-1j3S_phQ-7" target="2XuE7_Qku_h-1j3S_phQ-11">
          <mxGeometry relative="1" as="geometry" />
        </mxCell>
        <mxCell id="2XuE7_Qku_h-1j3S_phQ-7" value="Weather" style="swimlane;childLayout=stackLayout;horizontal=1;startSize=30;horizontalStack=0;rounded=1;fontSize=14;fontStyle=0;strokeWidth=2;resizeParent=0;resizeLast=1;shadow=0;dashed=0;align=center;" vertex="1" parent="1">
          <mxGeometry x="630" y="770" width="160" height="120" as="geometry" />
        </mxCell>
        <mxCell id="2XuE7_Qku_h-1j3S_phQ-8" value="・AirSimGlobal&#xa;天気" style="align=left;strokeColor=none;fillColor=none;spacingLeft=4;fontSize=12;verticalAlign=top;resizable=0;rotatable=0;part=1;" vertex="1" parent="2XuE7_Qku_h-1j3S_phQ-7">
          <mxGeometry y="30" width="160" height="90" as="geometry" />
        </mxCell>
        <mxCell id="2XuE7_Qku_h-1j3S_phQ-9" style="edgeStyle=orthogonalEdgeStyle;rounded=0;orthogonalLoop=1;jettySize=auto;html=1;" edge="1" parent="1" source="2XuE7_Qku_h-1j3S_phQ-2" target="2XuE7_Qku_h-1j3S_phQ-7">
          <mxGeometry relative="1" as="geometry" />
        </mxCell>
        <mxCell id="2XuE7_Qku_h-1j3S_phQ-10" value="WeatherFX" style="swimlane;childLayout=stackLayout;horizontal=1;startSize=30;horizontalStack=0;rounded=1;fontSize=14;fontStyle=0;strokeWidth=2;resizeParent=0;resizeLast=1;shadow=0;dashed=0;align=center;" vertex="1" parent="1">
          <mxGeometry x="830" y="770" width="160" height="120" as="geometry" />
        </mxCell>
        <mxCell id="2XuE7_Qku_h-1j3S_phQ-11" value="天気&#xa;Render" style="align=left;strokeColor=none;fillColor=none;spacingLeft=4;fontSize=12;verticalAlign=top;resizable=0;rotatable=0;part=1;" vertex="1" parent="2XuE7_Qku_h-1j3S_phQ-10">
          <mxGeometry y="30" width="160" height="90" as="geometry" />
        </mxCell>
      </root>
    </mxGraphModel>
  </diagram>
</mxfile>
